# xmcd
# 
# Track frame offsets:
#     150
#     11970
#     31072
#     43747
#     58010
# 
# Disc length: 1114
# 
# Revision: 0
# Processed by: cddbd v1.5.2PL0 Copyright (c) Steve Scherf et al.
# Submitted via: BonkEnc v1.0
# 
DISCID=3b045805
DTITLE=Sherman Baker - Dreamers
DYEAR=2007
DGENRE=Rock
TTITLE0=He's a Mirror
TTITLE1=San Francisco
TTITLE2=Carry Me Home
TTITLE3=The Tortured Type
TTITLE4=The Glass
EXTD=
EXTT0=
EXTT1=
EXTT2=
EXTT3=
EXTT4=
PLAYORDER=
